<?xml version="1.0" standalone="no"?><!DOCTYPE svg PUBLIC "-//W3C//DTD SVG 1.1//EN" "http://www.w3.org/Graphics/SVG/1.1/DTD/svg11.dtd"><svg t="1510130368977" class="icon" style="" viewBox="0 0 1024 1024" version="1.1" xmlns="http://www.w3.org/2000/svg" p-id="6880" xmlns:xlink="http://www.w3.org/1999/xlink" width="128" height="128"><defs><style type="text/css"></style></defs><path d="M825.591678 391.490247c0 22.637191-18.642393 41.279584-41.279584 41.279584H286.293888c-22.637191 0-41.279584-18.642393-41.279584-41.279584 0-22.637191 18.642393-41.279584 41.279584-41.279584H785.643693c22.637191 0 39.947984 18.642393 39.947985 41.279584z m-147.807543 199.739922c0 22.637191-18.642393 41.279584-41.279584 41.279584H320.915475c-22.637191 0-41.279584-18.642393-41.279584-41.279584 0-22.637191 18.642393-41.279584 41.279584-41.279584h315.589076c22.637191 1.331599 41.279584 19.973992 41.279584 41.279584z m292.951886-315.589077c-25.30039-54.595579-61.253576-102.53316-106.527959-143.812743-46.605982-41.279584-99.869961-73.237971-158.460338-95.875163C644.494148 11.984395 579.245774 0 512.6658 0S380.837451 11.984395 319.583875 35.953186c-58.590377 22.637191-111.854356 55.927178-158.460338 97.206762-46.605982 39.947984-82.559168 89.217165-107.859558 142.481144-26.63199 55.927178-39.947984 115.849155-39.947984 177.102731 0 119.843953 50.60078 231.698309 142.481144 316.920676 89.217165 82.559168 207.729519 130.496749 332.89987 135.823147 49.269181 91.880364 182.429129 109.191157 233.029909 114.517556l26.63199 3.994798-6.657998-26.63199c-6.657997-26.63199-7.989597-58.590377-2.663199-90.548764 5.326398-29.295189 13.315995-45.274382 15.979194-49.269181 70.574772-35.953186 134.491547-93.211964 179.76593-161.123537 49.269181-73.237971 74.569571-157.128739 74.569571-242.351105 0-62.585176-13.315995-121.175553-38.616385-178.434331z" p-id="6881"></path></svg>