<?xml version="1.0" standalone="no"?><!DOCTYPE svg PUBLIC "-//W3C//DTD SVG 1.1//EN" "http://www.w3.org/Graphics/SVG/1.1/DTD/svg11.dtd"><svg t="1510128211312" class="icon" style="" viewBox="0 0 1024 1024" version="1.1" xmlns="http://www.w3.org/2000/svg" p-id="3199" xmlns:xlink="http://www.w3.org/1999/xlink" width="128" height="128"><defs><style type="text/css"></style></defs><path d="M691.328 358.464c11.648 0 23.04 0.896 34.432 2.24-31.104-144-185.344-250.816-361.792-250.816-197.184 0-358.72 133.76-358.72 303.68 0 97.984 53.696 178.432 143.616 241.024l-35.84 107.392 125.184-62.528c44.928 8.832 81.088 17.92 125.76 17.92 11.136 0 22.4-0.64 33.408-1.472-6.848-23.936-11.072-48.896-11.072-74.816C386.304 485.184 520.704 358.464 691.328 358.464zM498.368 261.568c27.008 0 44.864 17.728 44.864 44.672 0 26.752-17.856 44.672-44.864 44.672-26.944 0-53.952-17.92-53.952-44.672C444.416 279.296 471.424 261.568 498.368 261.568zM247.488 350.912c-27.008 0-54.208-17.92-54.208-44.672 0-26.88 27.2-44.672 54.208-44.672 26.688 0 44.416 17.728 44.416 44.672C291.968 332.992 274.176 350.912 247.488 350.912z" p-id="3200" fill="#007C00"></path><path d="M1018.496 636.736c0-142.784-143.424-259.072-304.448-259.072-170.816 0-305.28 116.224-305.28 259.072 0 143.104 134.464 259.072 305.28 259.072 35.712 0 71.552-8.832 107.52-17.792l98.368 53.696-27.008-89.344C964.992 788.672 1018.496 717.376 1018.496 636.736zM615.04 592c-17.728 0-35.968-17.536-35.968-35.584 0-17.856 18.176-35.712 35.968-35.712 27.264 0 44.8 17.856 44.8 35.712C659.904 574.4 642.304 592 615.04 592zM812.352 592c-17.92 0-35.712-17.536-35.712-35.584 0-17.856 17.728-35.712 35.712-35.712 26.752 0 44.8 17.856 44.8 35.712C857.216 574.4 839.104 592 812.352 592z" p-id="3201" fill="#007C00"></path></svg>