<?xml version="1.0" standalone="no"?><!DOCTYPE svg PUBLIC "-//W3C//DTD SVG 1.1//EN" "http://www.w3.org/Graphics/SVG/1.1/DTD/svg11.dtd"><svg t="1510557497018" class="icon" style="" viewBox="0 0 1024 1024" version="1.1" xmlns="http://www.w3.org/2000/svg" p-id="1833" xmlns:xlink="http://www.w3.org/1999/xlink" width="128" height="128"><defs><style type="text/css"></style></defs><path d="M564.026 635.973s-59.397 47.517-81.328 60.311c-19.19 10.966-36.552 18.276-53 22.845-15.535 5.483-30.155 8.224-42.035 9.138-11.879 0.914-21.931 1.828-29.242 2.741-0.914 0-1.828 0.914-2.741 0.914h-9.138c-20.104 0-40.207-2.741-57.569-7.31-18.276-4.569-33.81-11.879-47.517-21.931-13.707-9.138-23.759-21.017-31.983-35.638-8.224-14.621-11.879-31.069-11.879-50.259 0-16.448 4.569-31.069 13.707-44.776 8.224-13.707 20.104-24.672 32.897-33.81 13.707-9.138 28.328-16.448 45.69-21.017 16.448-4.569 32.897-7.31 50.259-6.397a397.373 397.373 0 0 1 47.517 5.483c15.535 2.741 30.155 7.31 43.862 11.879s27.414 9.138 39.293 14.621c12.793 5.483 24.673 10.052 35.638 15.535l13.707 5.483c4.569 1.828 10.052 3.655 15.535 5.483 10.966-13.707 20.104-27.414 27.414-40.207 7.31-13.707 13.707-25.586 18.276-36.552 4.569-10.966 8.224-20.104 10.966-27.414a424.407 424.407 0 0 0 5.483-15.535h-243.07v-26.5h115.138v-62.14H309.99v-26.5h159.914v-50.259c0-3.655 1.828-6.397 5.483-8.224 3.655-1.828 8.224-3.655 12.793-4.569 5.483-0.914 11.879-1.828 19.19-1.828h42.948v63.966h164.483v26.5H550.319v62.138h130.673v-0.914 0.914c-2.741 16.448-7.31 33.81-13.707 53-5.483 16.448-12.793 34.724-22.845 54.828-10.052 20.103-23.759 42.035-40.207 63.052 0 0 128.845 61.224 264.087 83.156 22.845-50.259 34.724-105.087 34.724-163.57 0-220.225-178.19-398.415-398.415-398.415S106.214 292.386 106.214 512.61s178.19 398.415 398.415 398.415c137.069 0 256.777-68.535 328.967-173.621-73.104-16.448-150.777-48.431-269.57-101.431z m-313.433-18.276c-1.828 68.535 75.845 73.104 87.724 74.018 39.293 0.914 71.276-13.707 95.949-28.328 24.673-14.621 64.88-53 66.707-53.914 1.828-0.914 2.741-2.741 4.569-4.569-10.966-6.397-21.017-11.879-31.983-16.448-10.052-5.483-63.966-33.81-110.569-38.379-89.552-9.139-112.397 47.517-112.397 67.62z" fill="#29A1F7" p-id="1834"></path></svg>