<?xml version="1.0" standalone="no"?><!DOCTYPE svg PUBLIC "-//W3C//DTD SVG 1.1//EN" "http://www.w3.org/Graphics/SVG/1.1/DTD/svg11.dtd"><svg t="1510730202486" class="icon" style="" viewBox="0 0 1024 1024" version="1.1" xmlns="http://www.w3.org/2000/svg" p-id="4566" xmlns:xlink="http://www.w3.org/1999/xlink" width="32" height="32"><defs><style type="text/css"></style></defs><path d="M230.4 102.4h563.2c70.6944 0 128 57.3056 128 128v563.2c0 70.6944-57.3056 128-128 128H230.4c-70.6944 0-128-57.3056-128-128V230.4c0-70.6944 57.3056-128 128-128z m270.5664 253.952c0-8.832 6.6176-14.72 19.8656-17.664 91.2128-4.416 162.56-11.0336 214.0672-19.8656 22.0672-5.888 31.6288-19.1232 28.6848-39.7184-5.888-19.136-20.5952-26.496-44.1344-22.08-51.4944 10.304-127.2704 16.9216-227.3152 19.8656-35.3024-1.472-52.9664 13.9776-52.9664 46.336v66.2144c0 82.3936-4.4032 150.0672-13.2352 203.0336-10.304-14.72-23.552-13.9776-39.7312 2.2144-5.888 8.832-11.776 18.3936-17.6512 28.6848V433.5872c1.472-35.328-13.2352-52.224-44.1344-50.7648H284.672c-19.1232 1.472-28.6848 11.776-28.6848 30.8992 0 20.5952 9.5616 31.6288 28.6848 33.1008h13.248c4.416 1.472 7.36 4.416 8.832 8.832V696.192c2.944 36.7744 20.5952 46.336 52.9536 28.6848 11.776-8.832 29.44-30.8992 52.9664-66.2016-2.944 14.72-8.832 30.1568-17.6512 46.336-8.832 20.608-11.776 35.328-8.832 44.1472 7.36 10.2912 19.136 14.72 35.3152 13.2352 11.776-1.472 21.3376-9.5616 28.6848-24.2688 27.9552-58.8544 44.1472-147.8656 48.5632-267.0336h97.1008v44.1344c-35.3152-17.664-58.112-18.3936-68.416-2.2144-13.248 23.552-5.1456 41.9328 24.2688 55.168 4.416 1.4848 11.0464 4.4288 19.8656 8.832 11.776 4.416 19.8656 8.1024 24.2816 11.0464v158.8864c1.472 14.72 11.776 22.8096 30.8992 24.2816 19.1232-1.472 29.4144-9.5616 30.8864-24.2816V607.9232a389.7344 389.7344 0 0 1 41.9328 22.0672l22.0672 11.0336c22.0672 7.36 36.7872 1.472 44.1472-17.6512 5.888-16.1792-1.472-29.4272-22.08-39.7184-17.6512-10.304-42.6624-23.552-75.0336-39.7312a85.632 85.632 0 0 1-11.0336-4.416v-68.4032h81.664c17.6512-1.472 27.2128-11.776 28.6848-30.8992-2.944-19.1232-13.2352-29.4272-30.8992-30.8992H500.9664v-52.9664z m-132.416 4.4032c16.1792 11.776 30.1568 10.304 41.9328-4.416 10.304-14.72 8.832-30.1568-4.416-46.336-11.776-14.72-35.3024-34.5856-70.6176-59.5968-19.1232-10.2912-36.0448-9.5616-50.7648 2.2144-13.2352 14.72-12.5056 28.6848 2.2144 41.92 25.0112 17.664 52.224 39.7312 81.664 66.2144z" fill="#303439" p-id="4567"></path></svg>