<?xml version="1.0" standalone="no"?><!DOCTYPE svg PUBLIC "-//W3C//DTD SVG 1.1//EN" "http://www.w3.org/Graphics/SVG/1.1/DTD/svg11.dtd"><svg t="1510196169953" class="icon" style="" viewBox="0 0 1024 1024" version="1.1" xmlns="http://www.w3.org/2000/svg" p-id="4677" xmlns:xlink="http://www.w3.org/1999/xlink" width="128" height="128"><defs><style type="text/css"></style></defs><path d="M232.192 83.86048c0 21.79072-0.2048 43.38176 0.41472 65.1776 0.6144 17.15712 10.45504 29.66528 25.20064 37.32992 22.74816 11.904 45.49632 10.69568 66.39104-4.64384 11.88352-8.67328 18.44224-20.3776 18.44224-35.30752V77.2096h342.00576c0 1.60768 0.19968 3.4304 0.19968 5.248 0 19.97312 0.60928 40.15616-0.19968 60.1344-1.02912 22.79424 13.73184 40.76544 33.81248 47.83104 19.88096 7.06048 38.93248 5.03808 56.55552-7.06048 13.52704-9.49248 20.49024-22.6048 20.49024-39.15264-0.2048-20.17792 0-40.36096 0-60.53376V77.4144c2.048-0.2048 3.49184-0.2048 4.9152-0.2048 27.45856 0 55.12192-0.2048 82.58048 0 34.0224 0.40448 63.51872 11.6992 86.48192 37.12512 15.36512 17.152 22.12864 37.53984 22.12864 60.1344v359.6032c0 126.53056-0.61952 253.25568 0.2048 379.78624 0.4096 52.87936-37.70368 86.77376-79.30368 96.26112-10.45504 2.42688-21.51936 3.44064-32.37376 3.44064-244.06528 0.19968-488.12032 0.19968-732.16512 0.19968-28.07808 0-53.69344-6.8608-75.82208-24.2176-23.77216-18.75968-35.65056-42.97728-35.65056-73.05216v-315.61216c0-140.45184 0.6144-281.09824-0.41472-421.5552-0.41472-55.90016 38.93248-89.19552 80.94208-98.67264a116.52096 116.52096 0 0 1 26.43456-3.03104c28.27776-0.40448 56.76544-0.2048 85.03808-0.2048 0.8192-0.4096 1.63328-0.4096 3.6864-0.4096l0.00512 6.85568zM106.58304 257.44896v643.64544c0.20992 8.51456 3.07712 16.10752 8.40192 22.08768 9.22112 10.34752 20.90496 12.88704 33.39776 12.88704H876.4416c4.7104 0 9.63584-0.2304 14.34624-0.92672 15.58016-2.52928 30.32576-15.18592 30.32576-37.94944-0.20992-210.94912-0.20992-422.12352-0.20992-633.06752v-6.67136l-814.32064-0.00512zM314.9824 93.34784v56.50432c0 17.75616-10.04032 27.04384-28.27776 26.0352-13.31712-0.81408-22.74816-7.67488-24.59136-17.96608-0.4096-2.01216-0.4096-4.03456-0.4096-6.05184V36.2496c0-16.75264 10.04032-26.83904 27.24864-25.8304 5.73952 0.40448 11.68384 2.42176 16.80896 5.0432 6.14912 3.23072 9.22112 8.87296 9.22112 16.34304a3008.13312 3008.13312 0 0 0 0 61.55264v-0.01024z m397.74208 0V36.2496c0-17.96096 12.90752-28.66176 31.15008-25.43616 12.29312 2.0224 19.87584 8.27904 21.71904 17.75616 0.4096 2.0224 0.4096 4.03968 0.4096 6.05184 0 39.15264-0.19968 78.30016 0.20992 117.65248 0.2048 14.53056-9.8304 21.79072-21.09952 23.61344-6.76352 1.20832-13.74208 0.59904-19.8912-2.62144-7.9872-4.03968-12.4928-9.89184-12.288-19.1744 0-20.38272-0.2048-40.56064-0.20992-60.74368zM513.95072 655.36c26.38848 0 98.0736-334.50496 0-334.50496s-26.3936 334.50496 0 334.50496z m0 191.14496c26.38848 0 47.78496-21.39648 47.78496-47.79008a47.79008 47.79008 0 0 0-95.56992 0 47.78496 47.78496 0 0 0 47.78496 47.79008z" fill="#2c2c2c" p-id="4678"></path></svg>