<?xml version="1.0" standalone="no"?><!DOCTYPE svg PUBLIC "-//W3C//DTD SVG 1.1//EN" "http://www.w3.org/Graphics/SVG/1.1/DTD/svg11.dtd"><svg t="1510193234814" class="icon" style="" viewBox="0 0 1024 1024" version="1.1" xmlns="http://www.w3.org/2000/svg" p-id="1983" xmlns:xlink="http://www.w3.org/1999/xlink" width="128" height="128"><defs><style type="text/css"></style></defs><path d="M904 192H120c-31 0-55.8 25-56 56v528c0.4 31 25 56 56 56h784c31.2 0 56-25.4 56-56.6V248.6c0-31.2-24.8-56.6-56-56.6zM154.2 256h715.4c13.8 0 24.2 10.2 26.2 24v40H128v-40.6c2-13.6 12.6-23.4 26.2-23.4z m715.6 512H154.2c-13.8 0-24.2-9.8-26.2-23.4V512h768v232c-2 13.8-12.6 24-26.2 24z" fill="#2c2c2c" p-id="1984"></path><path d="M192 608h384v32H192zM192 672h192v32H192zM704 608h128v96h-128z" fill="#2c2c2c" p-id="1985"></path></svg>