<?xml version="1.0" standalone="no"?><!DOCTYPE svg PUBLIC "-//W3C//DTD SVG 1.1//EN" "http://www.w3.org/Graphics/SVG/1.1/DTD/svg11.dtd"><svg t="1510132863517" class="icon" style="" viewBox="0 0 1024 1024" version="1.1" xmlns="http://www.w3.org/2000/svg" p-id="10469" xmlns:xlink="http://www.w3.org/1999/xlink" width="128" height="128"><defs><style type="text/css"></style></defs><path d="M511.999488 104.226806l112.429629 227.812519a89.798189 89.798189 0 0 0 67.62212 49.126884l251.400751 36.532032-181.922353 177.322591a89.806375 89.806375 0 0 0-25.824155 79.492472l42.949184 250.389724-224.860281-118.215402a90.12974 90.12974 0 0 0-41.794895-10.31902 90.081645 90.081645 0 0 0-41.788755 10.31902L245.344313 924.902004l42.944067-250.389723a89.780793 89.780793 0 0 0-25.827225-79.486333L80.542896 417.698241l251.40689-36.532032a89.787956 89.787956 0 0 0 67.61598-49.126884L511.999488 104.226806m0-57.054437c-14.783705 0-29.567409 7.698333-37.169551 23.103184L356.205213 310.638923a41.440831 41.440831 0 0 1-31.209816 22.674419L59.741128 371.857193c-33.996279 4.938476-47.573505 46.718021-22.972201 70.697155l191.941543 187.097212a41.447994 41.447994 0 0 1 11.921518 36.687574l-45.313022 264.183891c-4.593622 26.79118 16.691147 48.545646 40.845267 48.545646 6.370081 0 12.945847-1.511423 19.293415-4.851494l237.251495-124.730793a41.467437 41.467437 0 0 1 38.581714 0l237.249449 124.730793c6.351662 3.341095 12.925381 4.851495 19.294438 4.851494 24.150026 0 45.438888-21.75549 40.844244-48.545646L783.368012 666.339134a41.426505 41.426505 0 0 1 11.919471-36.687574L987.228003 442.555371c24.603351-23.979134 11.026124-65.75868-22.974247-70.697155l-265.24813-38.544874a41.440831 41.440831 0 0 1-31.209816-22.674419L549.168016 70.275553c-7.603165-15.401782-22.385846-23.103184-37.168528-23.103184z" fill="" p-id="10470"></path></svg>