<?xml version="1.0" standalone="no"?><!DOCTYPE svg PUBLIC "-//W3C//DTD SVG 1.1//EN" "http://www.w3.org/Graphics/SVG/1.1/DTD/svg11.dtd"><svg t="1510729391551" class="icon" style="" viewBox="0 0 1024 1024" version="1.1" xmlns="http://www.w3.org/2000/svg" p-id="3100" xmlns:xlink="http://www.w3.org/1999/xlink" width="32" height="32"><defs><style type="text/css"></style></defs><path d="M845.858 32h-667.692c-80.72 0.013-146.152 65.446-146.166 146.165v667.694c0 0.007 0 0.015 0 0.023 0 80.699 65.42 146.119 146.119 146.119 0.017 0 0.033 0 0.050 0h667.69c0.014 0 0.031 0 0.047 0 80.699 0 146.119-65.42 146.119-146.119 0-0.008 0-0.017 0-0.025v-667.691c0-80.725-65.44-146.166-146.166-146.166 0 0 0 0 0 0M863.083 821.781c0 22.825-18.477 41.303-41.303 41.303h-206.512c-250.934 0-454.327-203.417-454.327-454.351v-206.512c0-22.825 18.477-41.302 41.303-41.302h165.21c22.825 0 41.302 18.477 41.302 41.302v165.21c0 22.825-18.477 41.302-41.302 41.302h-41.302c2.575 162.635 123.907 289.118 289.094 289.118v-41.303c0-22.825 18.477-41.302 41.302-41.302h165.21c22.825 0 41.303 18.477 41.303 41.302v165.233z" fill="#2c2c2c" p-id="3101"></path></svg>