<?xml version="1.0" standalone="no"?><!DOCTYPE svg PUBLIC "-//W3C//DTD SVG 1.1//EN" "http://www.w3.org/Graphics/SVG/1.1/DTD/svg11.dtd"><svg t="1510820679569" class="icon" style="" viewBox="0 0 1519 1024" version="1.1" xmlns="http://www.w3.org/2000/svg" p-id="1837" xmlns:xlink="http://www.w3.org/1999/xlink" width="23.734375" height="16"><defs><style type="text/css"></style></defs><path d="M618.272 660.707l199.303-56.569-142.347-141.497-56.956 198.071zM1150.659 273.088l-142.347-141.444-313.282 311.258 142.401 141.497 313.226-311.312zM1109.151 797.132c0 49.184-39.818 88.996-89.056 88.996h-534.361c-49.172 0-89.105-39.821-89.105-88.996v-534.361c0-49.172 39.929-89.042 89.105-89.042h356.204l89.105-89.056h-475.029c-81.939 0-148.431 66.495-148.431 148.441v593.694c0 81.939 66.495 148.431 148.431 148.431h593.804c81.945 0 148.431-66.495 148.431-148.431v-474.975l-89.105 89.108v356.194h0.002zM1216.862 154.326l-88.989-88.436c-14.782-14.672-39.475-13.873-55.217 1.686l-42.691 42.466 142.342 141.501 42.748-42.413c15.743-15.677 16.528-40.209 1.81-54.811v0zM1216.862 154.326z" p-id="1838" fill="#707070"></path></svg>