<?xml version="1.0" standalone="no"?><!DOCTYPE svg PUBLIC "-//W3C//DTD SVG 1.1//EN" "http://www.w3.org/Graphics/SVG/1.1/DTD/svg11.dtd"><svg t="1510559815182" class="icon" style="" viewBox="0 0 1024 1024" version="1.1" xmlns="http://www.w3.org/2000/svg" p-id="3457" xmlns:xlink="http://www.w3.org/1999/xlink" width="16" height="16"><defs><style type="text/css"></style></defs><path d="M576.8 512l196.6-196.6c17.9-17.9 17.9-46.9 0-64.8s-46.9-17.9-64.8 0L512 447.2 315.4 250.7c-17.9-17.9-46.9-17.9-64.8 0s-17.9 46.9 0 64.8L447.2 512 250.7 708.6c-17.9 17.9-17.9 46.9 0 64.8 8.9 8.9 20.7 13.4 32.4 13.4s23.4-4.5 32.4-13.4L512 576.8l196.6 196.6c8.9 8.9 20.7 13.4 32.4 13.4s23.4-4.5 32.4-13.4c17.9-17.9 17.9-46.9 0-64.8L576.8 512z" fill="#d81e06" p-id="3458"></path></svg>