<?xml version="1.0" standalone="no"?><!DOCTYPE svg PUBLIC "-//W3C//DTD SVG 1.1//EN" "http://www.w3.org/Graphics/SVG/1.1/DTD/svg11.dtd"><svg t="1509693802475" class="icon" style="" viewBox="0 0 1024 1024" version="1.1" xmlns="http://www.w3.org/2000/svg" p-id="3174" xmlns:xlink="http://www.w3.org/1999/xlink" width="128" height="128"><defs><style type="text/css"></style></defs><path d="M505.393548 498.236559c84.782796 0 154.150538-69.367742 154.150538-154.150537s-69.367742-154.150538-154.150538-154.150538-154.150538 69.367742-154.150537 154.150538 69.367742 154.150538 154.150537 154.150537zM603.939785 525.212903h-15.415054l-71.569892 131.578495c-4.404301 7.707527-15.415054 7.707527-19.268817-0.550538L432.722581 525.212903h-13.763441c-74.873118 0-135.982796 60.55914-135.982796 135.982796v136.533333c0 24.223656 19.819355 44.043011 44.043011 44.043011h368.309677c24.223656 0 44.043011-19.819355 44.043011-44.043011v-136.533333c0-74.873118-60.55914-135.982796-135.432258-135.982796z m68.266667 165.711828h-30.27957v30.27957h-22.021506v-30.27957h-30.27957v-22.021505h30.27957V638.623656h22.021506v30.27957h30.27957v22.021505z" p-id="3175" fill="#1296db"></path></svg>