<?xml version="1.0" standalone="no"?><!DOCTYPE svg PUBLIC "-//W3C//DTD SVG 1.1//EN" "http://www.w3.org/Graphics/SVG/1.1/DTD/svg11.dtd"><svg t="1509073070703" class="icon" style="" viewBox="0 0 1024 1024" version="1.1" xmlns="http://www.w3.org/2000/svg" p-id="2355" xmlns:xlink="http://www.w3.org/1999/xlink" width="16" height="16"><defs><style type="text/css"></style></defs><path d="M732.280985 539.322275c63.742766-34.474163 102.980419-99.391684 102.980419-171.394578 0-107.790982-88.921215-195.485253-198.217481-195.485253-8.18031 0-16.743336 0.561795-25.445532 1.669012l-4.149507 0.525979 2.65241 3.233648c10.813277 13.18223 20.319791 27.576055 28.249391 42.778292l0.633427 1.210571 1.366114 0.027629c80.311117 1.744737 145.646148 67.255777 145.646148 146.041144 0 80.633459-66.817802 146.231479-148.95245 146.231479l-6.136767 0 84.006276 73.739445 0.856507 0.008186c107.735723 1.191128 195.381899 88.228437 195.381899 194.015785l0 13.680581c0 4.711302-0.860601 6.544043-4.38896 9.327436-6.523577 5.121648-18.682501 9.558703-35.166941 12.815887-15.452947 3.058662-35.215036 5.129834-60.417021 6.336312l-2.13871 0.103354-0.059352 2.13871c-0.48607 16.766872-4.213975 31.618115-11.079336 44.144406l-1.951445 3.560082 4.058432-0.13917c83.313497-2.863211 160.414503-14.33345 160.414503-78.287017l0-13.680581C960.420963 653.800563 860.886015 548.809347 732.280985 539.322275zM513.215688 531.987217c73.850985-36.07052 124.766608-111.157659 124.766608-197.783599 0-121.620965-100.343359-220.566488-223.690642-220.566488s-223.690642 98.945523-223.690642 220.566488c0 87.341231 51.741431 162.988118 126.584 198.702528C175.187975 545.721009 63.579037 663.686724 63.579037 806.907637l0 15.617699c-0.016373 40.751123 28.145014 66.228377 86.091774 77.880765 49.514717 9.955746 116.086925 9.955746 193.175651 9.955746l158.768003 0c149.858076 0 279.275611 0 279.275611-87.833441l0-15.621792C780.8911 658.990772 661.845797 538.009374 513.215688 531.987217z" fill="#1296db" p-id="2356"></path></svg>